# xmcd CD database file
# Copyright (C) 1997 Ti Kan
# 
# Track frame offsets:
#     150
#     11667
#     22240
#     34282
#     49547
#     61392
#     74965
#     88355
#     100600
#     111290
# 
# Disc length: 1618 seconds
# 
# Revision: 1
# Processed by: cddbd v1.4b41PL1 Copyright (c) Steve Scherf et al.
# Submitted via: DiscPlay 4.0.4
# 
DISCID=9006500a
DTITLE=THE KENDALLS - BEST OF THE KENDALLS
DYEAR=1900
DGENRE=
TTITLE0=HEAVEN'S JUST A SIN AWAY
TTITLE1=YOU'D MAKE AN ANGEL WANNA CHEAT
TTITLE2=SWEET DESIRE
TTITLE3=JUST LIKE REAL PEOPLE
TTITLE4=IT DON'T FEEL LIKE SINNIN' TO ME
TTITLE5=THANK GOD FOR THE RADIO
TTITLE6=PITTSBURGH STEALERS
TTITLE7=I'M ALREADY BLUE
TTITLE8=I'D DANCE EVERY DANCE WITH YOU
TTITLE9=I HAD A LOVELY TIME
EXTD=
EXTT0=
EXTT1=
EXTT2=
EXTT3=
EXTT4=
EXTT5=
EXTT6=
EXTT7=
EXTT8=
EXTT9=
PLAYORDER=
